<?xml version="1.0" ?><!DOCTYPE svg  PUBLIC '-//W3C//DTD SVG 1.1//EN'  'http://www.w3.org/Graphics/SVG/1.1/DTD/svg11.dtd'><svg enable-background="new 0 0 512 512" id="Layer_1" version="1.1" viewBox="0 0 512 512" xml:space="preserve" xmlns="http://www.w3.org/2000/svg" xmlns:xlink="http://www.w3.org/1999/xlink"><g><g><g><g><path d="M358.5,119.2c-0.3,0-0.7,0-1,0c-4.9-25.6-27.4-45-54.5-45c-12.5,0-24,4.1-33.2,11h0      c-12.1-42.3-51-73.2-97.1-73.2c-55.8,0-101,45.2-101,101c0,10.5,1.6,20.5,4.5,30C54.6,150.7,39,171.3,39,195.5      c0,30.6,24.8,55.5,55.5,55.5h128c3-8.7,11.3-14.9,21-14.9h157.3c12.4-13.1,23.7-33.5,23.7-50.9      C424.5,148.7,394.9,119.2,358.5,119.2z M186.1,162.6h-63.4v-19.8c0-17.5,14.2-31.7,31.7-31.7c8.8,0,16.7,3.5,22.4,9.3      c5.7,5.7,9.3,13.7,9.3,22.4V162.6z M269,143.8c0,10.4-8.4,18.8-18.8,18.8h-37.9v-51.4h37.9c10.4,0,18.8,8.4,18.8,18.8V143.8z" fill="#CDCDCE"/><g><path d="M261.5,143.8c-0.4,12.6-13.1,11.3-22,11.3c-9.1,0-18.1,0-27.2,0c2.5,2.5,5,5,7.5,7.5c0-17.1,0-34.3,0-51.4       c-2.5,2.5-5,5-7.5,7.5c11.6,0,23.2,0,34.8,0c6.2,0,11.8,1.5,13.9,8.1C262.6,131.8,261.5,138.5,261.5,143.8c0,9.7,15,9.7,15,0       c0-6.9,0.7-14.3-1-21.1c-2.8-11.4-14.2-19.1-25.6-19.1c-12.5,0-25.1,0-37.6,0c-4.1,0-7.5,3.4-7.5,7.5c0,17.1,0,34.3,0,51.4       c0,4.1,3.4,7.5,7.5,7.5c10.7,0,21.4,0,32.2,0c5.2,0,10.4,0.1,15.3-1.9c10.2-4.1,16.3-13.6,16.7-24.4       C276.8,134.1,261.8,134.1,261.5,143.8z"/><path d="M186.1,155.1c-21.1,0-42.2,0-63.4,0c2.5,2.5,5,5,7.5,7.5c0-6.6,0-13.1,0-19.7c0-12.4,9-21.8,20.8-24.1       c14.6-2.8,27.2,10.1,27.6,24c0.2,6.6,0,13.2,0,19.8c0,9.7,15,9.7,15,0c0-9.3,0.7-18.9-0.9-28.1c-3.5-19.3-23.3-32.6-42.3-30.6       c-16.6,1.8-30.3,14-34.1,30.2c-2.1,9-1,19.3-1,28.5c0,4.1,3.4,7.5,7.5,7.5c21.1,0,42.2,0,63.4,0       C195.7,170.1,195.7,155.1,186.1,155.1z"/><path d="M358.5,111.7c-0.3,0-0.7,0-1,0c2.4,1.8,4.8,3.7,7.2,5.5c-3.9-19.4-17-36-34.9-44.5c-20.6-9.7-45.4-7.3-63.8,6       c1.3-0.3,2.5-0.7,3.8-1c0,0,0,0,0,0c2.4,1.8,4.8,3.7,7.2,5.5c-13.7-46.7-57.1-79-105.7-78.7c-46.5,0.3-87.7,31.8-102,75.6       c-6.9,20.9-6.6,44-0.3,64.9c1.7-3.1,3.5-6.2,5.2-9.2c-23.6,8.6-39.4,28.9-42.3,53.7c-2.8,23.6,9.8,46.7,29.4,59.3       c11.9,7.7,25.4,9.5,39.2,9.5c12.4,0,24.7,0,37.1,0c28.3,0,56.7,0,85,0c3.6,0,6-2.3,7.2-5.5c4-10.3,14.2-9.4,23.1-9.4       c12.4,0,24.8,0,37.2,0c30.6,0,61.3,0,91.9,0c6.2,0,12.3,0,18.5,0c2.9,0,4.8-1.3,6.7-3.3c4-4.4,7.6-9.2,10.9-14.2       c6.5-9.9,11.5-21.3,13.3-33c3-20.6-4.7-41.6-18.2-57C399.5,120.4,379,111.9,358.5,111.7c-9.7-0.1-9.7,14.9,0,15       c22.9,0.2,42.9,13.2,53,33.6c12.2,24.7,1.7,51.5-15.9,70.5c1.8-0.7,3.5-1.5,5.3-2.2c-49.1,0-98.3,0-147.4,0c-3.2,0-6.4,0-9.6,0       c-13.2,0-23.9,8.3-28.5,20.4c2.4-1.8,4.8-3.7,7.2-5.5c-22.5,0-45,0-67.5,0c-14.8,0-29.5,0-44.3,0c-8.3,0-17.1,0.7-25.2-0.8       c-20.2-3.8-36.4-21-38.7-41.5c-2.5-21.9,10.6-43.2,31.3-50.7c3.8-1.4,6.5-5.1,5.2-9.2c-13.8-45.9,8.7-94.4,52.2-114       C178,8.1,229.1,26,252.8,65c4.3,7,7.4,14.5,9.7,22.3c0.9,3.2,3.9,5.5,7.2,5.5c4.1,0,8.3-4.2,11.9-6c4.2-2.2,8.8-3.5,13.4-4.4       c8.9-1.7,18.1-0.2,26.5,3c15.2,5.8,25.5,20.3,28.7,35.8c0.6,3.2,4.1,5.6,7.2,5.5c0.3,0,0.7,0,1,0       C368.1,126.4,368.1,111.4,358.5,111.7z"/></g></g><g><path d="M186.1,142.8v19.8h-63.4v-19.8c0-17.5,14.2-31.7,31.7-31.7c8.8,0,16.7,3.5,22.4,9.3      C182.5,126.1,186.1,134.1,186.1,142.8z" fill="#88CCE7"/><g><path d="M178.6,142.8c0,6.6,0,13.2,0,19.8c2.5-2.5,5-5,7.5-7.5c-21.1,0-42.2,0-63.4,0c2.5,2.5,5,5,7.5,7.5       c0-11.3-2.4-25.5,5.3-35C149.8,110.1,178,120.6,178.6,142.8c0.2,9.7,15.2,9.7,15,0c-0.4-15.3-8.9-29.3-23.1-35.7       c-12.8-5.8-28.2-4.2-39.4,4.2c-10,7.5-15.9,19.2-15.9,31.7c0,6.5,0,13,0,19.5c0,4.1,3.4,7.5,7.5,7.5c21.1,0,42.2,0,63.4,0       c4.1,0,7.5-3.4,7.5-7.5c0-6.6,0-13.2,0-19.8C193.6,133.1,178.6,133.1,178.6,142.8z"/></g></g><g><g><path d="M83.7,143.1C83.7,143.1,83.7,143.1,83.7,143.1c0-4.1-3.4-7.5-7.5-7.5c-4.1,0-7.5,3.4-7.5,7.5c0,0,0,0,0,0       c0,4.1,3.4,7.5,7.5,7.5C80.3,150.6,83.7,147.2,83.7,143.1L83.7,143.1z"/></g></g></g><g><g><g><path d="M193.6,214c0-17.2,0-34.3,0-51.5c0-9.7-15-9.7-15,0c0,17.2,0,34.3,0,51.5C178.6,223.7,193.6,223.7,193.6,214L193.6,214       z"/></g></g><g><g><path d="M130.2,214c0-17.2,0-34.3,0-51.5c0-9.7-15-9.7-15,0c0,17.2,0,34.3,0,51.5C115.2,223.7,130.2,223.7,130.2,214L130.2,214       z"/></g></g></g><g><g><g><path d="M219.8,214c0-17.2,0-34.3,0-51.5c0-9.7-15-9.7-15,0c0,17.2,0,34.3,0,51.5C204.8,223.7,219.8,223.7,219.8,214L219.8,214       z"/></g></g><g><path d="M269,129.9v13.9c0,10.4-8.4,18.8-18.8,18.8h-37.9v-51.4h37.9C260.5,111.1,269,119.5,269,129.9z" fill="#88CCE7"/><g><path d="M261.5,129.9c0,5.1,0.7,10.8-0.1,15.8c-1.3,7.1-7.4,9.3-13.7,9.3c-11.8,0-23.6,0-35.4,0c2.5,2.5,5,5,7.5,7.5       c0-17.1,0-34.3,0-51.4c-2.5,2.5-5,5-7.5,7.5c9.1,0,18.1,0,27.2,0C248.3,118.6,261,117.4,261.5,129.9c0.3,9.6,15.3,9.7,15,0       c-0.4-10.1-5.7-19.2-14.9-23.7c-5.5-2.7-11.2-2.6-17.1-2.6c-10.7,0-21.4,0-32.2,0c-4.1,0-7.5,3.4-7.5,7.5c0,17.1,0,34.3,0,51.4       c0,4.1,3.4,7.5,7.5,7.5c12.5,0,24.9,0,37.4,0c11.8,0,21.1-7.1,25.4-17.9c2.6-6.6,1.4-15.4,1.4-22.3       C276.5,120.3,261.5,120.3,261.5,129.9z"/></g></g></g><g><g><g><path d="M286.2,118.6c16.1,0,32.2,0,48.3,0c9.7,0,9.7-15,0-15c-16.1,0-32.2,0-48.3,0C276.5,103.6,276.5,118.6,286.2,118.6       L286.2,118.6z"/></g></g><g><g><path d="M302.9,111.1c0,34.3,0,68.6,0,102.9c0,9.7,15,9.7,15,0c0-34.3,0-68.6,0-102.9C317.9,101.5,302.9,101.5,302.9,111.1       L302.9,111.1z"/></g></g><g><g><path d="M286.2,221.5c16.1,0,32.2,0,48.3,0c9.7,0,9.7-15,0-15c-16.1,0-32.2,0-48.3,0C276.5,206.5,276.5,221.5,286.2,221.5       L286.2,221.5z"/></g></g></g></g><g><g><path d="M437.7,490.5v9.4H256.5v-9.4c0-14,11.4-25.4,25.4-25.4h130.3C426.3,465.1,437.7,476.5,437.7,490.5z" fill="#CDCDCE"/><g><path d="M430.2,490.5c0,3.1,0,6.2,0,9.4c2.5-2.5,5-5,7.5-7.5c-49.9,0-99.9,0-149.8,0c-10.5,0-20.9,0-31.4,0c2.5,2.5,5,5,7.5,7.5      c0-6.8-1-14.3,3.5-20.1c3.9-5,9.4-7.2,15.6-7.2c9.6,0,19.2,0,28.8,0c29.8,0,59.6,0,89.3,0c3.5,0,7.1,0,10.6,0      C422.1,472.6,429.9,480.5,430.2,490.5c0.3,9.7,15.3,9.7,15,0c-0.5-19.4-15.9-32.9-34.8-32.9c-10.2,0-20.5,0-30.7,0      c-29.5,0-59,0-88.4,0c-7.7,0-15.1-0.3-22.4,2.8c-9.2,3.9-15.8,11.9-18.7,21.4c-1.7,5.7-1.2,12.2-1.2,18.1c0,4.1,3.4,7.5,7.5,7.5      c49.9,0,99.9,0,149.8,0c10.5,0,20.9,0,31.4,0c4.1,0,7.5-3.4,7.5-7.5c0-3.1,0-6.2,0-9.4C445.2,480.9,430.2,480.9,430.2,490.5z"/></g></g><g><g><polygon fill="#99CF8E" points="383.3,465.1 310.9,465.1 327.6,394.4 330.9,380.5 363.4,380.5 366.6,394.4     "/><g><path d="M383.3,457.6c-24.1,0-48.2,0-72.4,0c2.4,3.2,4.8,6.3,7.2,9.5c6.6-28.2,13.3-56.4,19.9-84.7c-2.4,1.8-4.8,3.7-7.2,5.5       c10.8,0,21.7,0,32.5,0c-2.4-1.8-4.8-3.7-7.2-5.5c6.6,28.2,13.3,56.4,19.9,84.7c2.2,9.4,16.7,5.4,14.5-4       c-6.6-28.2-13.3-56.4-19.9-84.7c-0.8-3.2-4-5.5-7.2-5.5c-10.8,0-21.7,0-32.5,0c-3.2,0-6.5,2.3-7.2,5.5       c-6.6,28.2-13.3,56.4-19.9,84.7c-1.1,4.7,2.2,9.5,7.2,9.5c24.1,0,48.2,0,72.4,0C393,472.6,393,457.6,383.3,457.6z"/></g></g></g><g><path d="M473,258.3v113.8c0,12.3-10,22.3-22.3,22.3h-84l-3.3-13.9h-32.5l-3.3,13.9h-84.1     c-12.3,0-22.3-10-22.3-22.3V258.3c0-2.6,0.4-5.1,1.3-7.4c3-8.7,11.3-14.9,21-14.9h207.2C463,236.1,473,246,473,258.3z" fill="#D77458"/><g><path d="M465.5,258.3c0,23.7,0,47.5,0,71.2c0,12.6,0,25.2,0,37.8c0,3.2,0.1,6.2-0.7,9.3c-1.8,6.7-8.5,10.2-15,10.2      c-27.7,0-55.4,0-83.1,0c2.4,1.8,4.8,3.7,7.2,5.5c-1.1-4.6-2.2-9.3-3.3-13.9c-0.8-3.2-4-5.5-7.2-5.5c-10.8,0-21.7,0-32.5,0      c-3.2,0-6.5,2.3-7.2,5.5c-1.1,4.6-2.2,9.3-3.3,13.9c2.4-1.8,4.8-3.7,7.2-5.5c-24.8,0-49.5,0-74.3,0c-3.2,0-6.5,0-9.7,0      c-8.1,0-14.8-6.7-14.8-14.8c0-8.4,0-16.7,0-25.1c0-28.2,0-56.5,0-84.7c0-4,0-7.5,1.9-11.2c2.7-5.1,8.2-7.4,13.7-7.4      c6.8,0,13.7,0,20.5,0c57.3,0,114.6,0,171.9,0c4.2,0,8.4,0,12.6,0C458.1,243.6,465.2,249.3,465.5,258.3c0.3,9.7,15.3,9.7,15,0      c-0.5-17.6-14.4-29.8-31.5-29.8c-7.6,0-15.3,0-22.9,0c-30.1,0-60.2,0-90.3,0c-26.9,0-53.9,0-80.8,0c-6.7,0-13.7-0.5-20.2,1.4      c-12.6,3.7-20.4,15.7-20.8,28.4c-0.1,2.2,0,4.4,0,6.6c0,29,0,58,0,86.9c0,8.7-0.7,17.7,0.6,26.3c1.7,11.5,12.1,20.8,23.1,23.1      c4,0.8,8.1,0.6,12.1,0.6c26,0,51.9,0,77.9,0c3.2,0,6.5-2.3,7.2-5.5c1.1-4.6,2.2-9.3,3.3-13.9c-2.4,1.8-4.8,3.7-7.2,5.5      c10.8,0,21.7,0,32.5,0c-2.4-1.8-4.8-3.7-7.2-5.5c1.1,4.6,2.2,9.3,3.3,13.9c0.8,3.2,4,5.5,7.2,5.5c24.8,0,49.5,0,74.3,0      c3.2,0,6.5,0,9.7,0c11,0,21.1-6.2,26.4-15.9c4.8-8.7,3.5-20,3.5-29.7c0-32.7,0-65.3,0-98C480.5,248.7,465.5,248.7,465.5,258.3z"/></g></g></g></g></svg>